<svg width="350" height="273" viewBox="0 0 350 273" fill="none" xmlns="http://www.w3.org/2000/svg">
<rect x="107.43" y="14.9373" width="177" height="134.912" rx="4" transform="rotate(10 107.43 14.9373)" fill="#321E50"/>
<ellipse cx="111.679" cy="221.781" rx="21" ry="8.5" transform="rotate(-5.12931 111.679 221.781)" fill="#321E50"/>
<rect x="122.59" y="220.299" width="10" height="10" transform="rotate(-5.12931 122.59 220.299)" fill="#321E50"/>
<path d="M140.003 154.937C129.836 159.604 109.803 171.637 111.003 182.437C112.503 195.937 127.003 211.937 125.503 219.937" stroke="#321E50" stroke-width="6"/>
<ellipse cx="180.679" cy="232.781" rx="21" ry="8.5" transform="rotate(-5.12931 180.679 232.781)" fill="#321E50"/>
<rect x="191.59" y="231.299" width="10" height="10" transform="rotate(-5.12931 191.59 231.299)" fill="#321E50"/>
<path d="M209.003 165.937C198.836 170.604 178.803 182.637 180.003 193.437C181.503 206.937 196.003 222.937 194.503 230.937" stroke="#321E50" stroke-width="6"/>
<path d="M267.588 109.139C273.261 117.452 287.46 132.622 298.863 126.798C310.266 120.974 316.288 96.5823 317.873 85.1147" stroke="#321E50" stroke-width="6"/>
<ellipse cx="322.643" cy="79.629" rx="7" ry="12" transform="rotate(47.0912 322.643 79.629)" fill="#321E50"/>
<ellipse cx="315.429" cy="76.8781" rx="2.5" ry="5" transform="rotate(2.53069 315.429 76.8781)" fill="#321E50"/>
<path d="M98.0031 76.2528C91.6263 84.0395 76.1596 97.9141 65.3075 91.1184C54.4553 84.3227 50.5828 59.4994 50.0031 47.9373" stroke="#321E50" stroke-width="6"/>
<ellipse rx="7" ry="12" transform="matrix(-0.833033 0.553223 0.553223 0.833033 46.1016 43.0913)" fill="#321E50"/>
<ellipse rx="2.5" ry="5" transform="matrix(-0.98172 -0.190332 -0.190332 0.98172 53.253 41.9226)" fill="#321E50"/>
<rect x="105.481" y="13.6215" width="173.5" height="131.412" rx="2.25" transform="rotate(10 105.481 13.6215)" fill="white" stroke="#321E50" stroke-width="3.5"/>
<circle cx="159.099" cy="69.6766" r="6.6627" transform="rotate(10 159.099 69.6766)" fill="#321E50"/>
<circle cx="197.858" cy="77.1912" r="6.6627" transform="rotate(10 197.858 77.1912)" fill="#321E50"/>
<path d="M201.884 91.8356C204.06 92.2192 205.547 94.317 204.747 96.376C202.844 101.274 199.057 105.481 193.867 108.362C187.362 111.973 179.186 113.204 171.138 111.785C163.089 110.366 155.828 106.412 150.95 100.794C147.059 96.3121 144.939 91.0634 144.826 85.8103C144.778 83.6017 146.893 82.1392 149.069 82.5228L175.476 87.1792L201.884 91.8356Z" fill="#321E50"/>
</svg>
